# xmcd
#
# Track frame offsets:
#	150
#	13692
#	27293
#	47776
#	68272
#	91945
#	112373
#	134797
#	152951
#	173961
#	198583
#
# Disc length: 3141 seconds
#
# Revision: 15
# Processed by: cddbd v1.5.2PL0 Copyright (c) Steve Scherf et al.
# Submitted via: audiograbber 1.83.01
#
DISCID=9b0c430b
DTITLE=Various Artist - Osiedle Pelne Rymow Czyli Hip Hop Jak Okiem Siegnac
DYEAR=1997
DGENRE=Hip-Hop
TTITLE0=Warszafski Deszcz - Trzyha - Letnia Milosc (Remix Tede)
TTITLE1=Venio I Pele - Dziekow Dla Chlopakow
TTITLE2=Stereofonia - Dzwieki Stereo
TTITLE3=Wzgórze Ya-Pa 3 /Warszafski Deszcz - Trzyha - Mam To Co Ty (Remix Tede)
TTITLE4=10 Osob - Wspólna Scena (Remix DJ 600 V)
TTITLE5=Slums Atack - Czas Przemija
TTITLE6=Wzgórze Ya-Pa 3 - Zabic Ten Halas (Remix DJ 600 V)
TTITLE7=OMP - Relaks Sobie Nos
TTITLE8=Erka -  Ano Bo Ty (Remix DJ 600 V)
TTITLE9=S.E.N.Mor W.A. - Unosze G³owê
TTITLE10=DJ600 V - Zróbcie Miejsce Zdeka
EXTD=
EXTT0=
EXTT1=
EXTT2=
EXTT3=
EXTT4=
EXTT5=
EXTT6=
EXTT7=
EXTT8=
EXTT9=
EXTT10=
PLAYORDER=
